<?xml version="1.0" encoding="utf-8"?>
<svg xmlns="http://www.w3.org/2000/svg" viewBox="150 210 290 190" preserveAspectRatio="xMidYMid meet">
  <g transform="matrix(0.1, 0, 0, -0.1, 0.50753, 599.915405)" fill="#000000" stroke="none">
    <path d="M 3818 3813 C 3755 3743 3679 3541 3630 3318 C 3604 3200 3593 3169 3561 3121 C 3541 3090 3498 3022 3467 2970 C 3399 2857 3374 2823 3364 2832 C 3350 2847 3361 2975 3390 3118 C 3407 3207 3415 3269 3410 3274 C 3396 3288 3351 3264 3339 3236 C 3327 3211 3327 3211 3301 3230 C 3218 3291 3144 3243 3087 3090 C 3066 3037 2995 2942 2983 2953 C 2981 2956 2986 3006 2995 3063 C 3014 3178 3010 3220 2981 3220 C 2957 3220 2948 3207 2925 3145 C 2906 3092 2864 3007 2829 2950 C 2816 2928 2792 2890 2775 2865 C 2759 2841 2742 2824 2737 2827 C 2723 2836 2737 2943 2770 3080 C 2787 3148 2798 3210 2796 3217 C 2788 3237 2752 3233 2733 3210 C 2723 3199 2706 3162 2695 3129 C 2682 3089 2665 3060 2648 3047 C 2633 3036 2619 3028 2616 3031 C 2614 3033 2610 3060 2607 3090 C 2600 3162 2588 3193 2554 3219 C 2520 3246 2486 3246 2459 3219 C 2442 3202 2439 3189 2443 3154 L 2448 3110 L 2415 3110 C 2390 3110 2375 3102 2356 3079 C 2342 3062 2330 3045 2330 3042 C 2330 3000 2293 2879 2266 2833 C 2248 2801 2224 2759 2214 2740 C 2163 2646 2099 2568 2084 2582 C 2075 2592 2050 2709 2051 2745 C 2052 2840 2075 2936 2107 2976 C 2124 2997 2162 3065 2193 3125 C 2307 3353 2345 3546 2284 3586 C 2248 3610 2229 3596 2184 3517 C 2112 3391 2035 3168 1995 2970 C 1981 2902 1969 2874 1935 2825 C 1911 2792 1878 2752 1861 2736 C 1838 2714 1833 2704 1842 2697 C 1851 2691 1849 2690 1837 2694 C 1826 2697 1817 2694 1814 2685 C 1810 2677 1777 2661 1763 2650 C 1729 2624 1714 2625 1683 2656 C 1664 2676 1659 2688 1664 2710 C 1670 2743 1656 2757 1635 2740 C 1599 2710 1639 2618 1695 2600 C 1740 2585 1773 2593 1823 2630 C 1860 2657 1910 2719 1910 2737 C 1910 2742 1919 2751 1930 2758 C 1941 2765 1950 2777 1950 2785 C 1950 2806 1968 2804 1973 2783 C 1976 2773 1979 2736 1980 2700 C 1981 2624 2007 2559 2044 2535 C 2065 2521 2075 2520 2105 2530 C 2148 2544 2174 2579 2228 2690 C 2250 2737 2276 2784 2284 2795 C 2299 2814 2299 2814 2300 2782 C 2301 2661 2405 2611 2479 2696 C 2521 2743 2550 2837 2561 2848 C 2571 2857 2571 2863 2562 2872 C 2546 2888 2547 2901 2564 2894 C 2575 2890 2581 2900 2587 2931 C 2593 2964 2603 2978 2631 2996 L 2667 3018 L 2666 2916 C 2665 2794 2679 2760 2733 2760 C 2774 2760 2806 2792 2851 2878 C 2885 2944 2902 2957 2895 2913 C 2893 2897 2888 2865 2885 2840 C 2880 2804 2866 2779 2819 2720 C 2683 2551 2584 2373 2573 2275 C 2559 2159 2665 2086 2769 2139 C 2871 2192 2920 2336 2956 2690 C 2973 2863 2974 2865 3009 2913 C 3028 2939 3047 2960 3050 2960 C 3053 2960 3056 2934 3057 2903 C 3058 2854 3063 2842 3085 2823 C 3099 2810 3117 2800 3125 2800 C 3150 2800 3195 2857 3240 2946 L 3284 3035 L 3291 2937 C 3297 2853 3301 2835 3324 2805 C 3376 2737 3415 2765 3521 2948 C 3550 2998 3578 3040 3582 3040 C 3586 3040 3589 3037 3588 3033 C 3587 3028 3589 2996 3594 2960 C 3616 2772 3734 2759 3821 2936 C 3839 2971 3854 3000 3855 3000 C 3857 3000 3867 2984 3879 2965 C 3933 2873 4009 2899 4098 3039 C 4185 3177 4234 3214 4288 3186 C 4325 3167 4341 3182 4314 3211 C 4292 3236 4235 3236 4195 3211 C 4155 3187 4114 3145 4077 3090 C 4036 3030 3970 2960 3955 2960 C 3938 2960 3930 2993 3930 3061 C 3930 3114 3932 3118 3959 3130 C 3990 3142 4030 3180 4014 3180 C 4008 3180 4004 3192 4024 3194 C 4041 3196 4096 3301 4107 3351 C 4115 3391 4095 3420 4058 3420 C 3971 3420 3879 3292 3850 3129 C 3838 3064 3767 2917 3729 2879 C 3685 2835 3660 2874 3660 2983 C 3660 3105 3686 3235 3724 3304 C 3802 3444 3882 3676 3884 3765 C 3885 3822 3884 3825 3859 3828 C 3844 3830 3827 3824 3818 3813 Z M 3806 3614 C 3782 3543 3756 3469 3748 3450 C 3740 3431 3730 3406 3726 3396 C 3723 3386 3717 3379 3715 3382 C 3709 3387 3790 3636 3819 3704 C 3858 3792 3851 3746 3806 3614 Z M 2274 3477 C 2264 3405 2230 3289 2198 3215 C 2163 3133 2110 3037 2104 3043 C 2095 3052 2163 3278 2212 3403 C 2261 3529 2286 3558 2274 3477 Z M 4034 3288 C 4013 3247 3959 3178 3953 3184 C 3945 3191 3988 3281 4018 3319 C 4038 3346 4046 3351 4048 3338 C 4050 3329 4044 3306 4034 3288 Z M 3278 3187 L 3300 3164 L 3247 3069 C 3192 2970 3141 2890 3132 2890 C 3130 2890 3131 2918 3134 2952 C 3146 3056 3214 3210 3248 3210 C 3253 3210 3266 3200 3278 3187 Z M 2552 3159 C 2572 3122 2575 3054 2560 3030 C 2551 3017 2546 3019 2525 3042 C 2497 3075 2483 3148 2500 3179 C 2515 3208 2531 3202 2552 3159 Z M 2490 3026 C 2501 3007 2519 2988 2529 2985 C 2547 2980 2564 2934 2551 2928 C 2547 2926 2531 2891 2515 2850 C 2480 2762 2432 2695 2404 2695 C 2387 2695 2385 2703 2382 2765 C 2380 2804 2384 2855 2390 2879 C 2405 2939 2453 3060 2461 3060 C 2465 3060 2478 3044 2490 3026 Z M 2861 2603 C 2851 2488 2823 2342 2802 2288 C 2796 2273 2779 2243 2764 2221 C 2716 2148 2629 2157 2614 2236 C 2605 2283 2628 2355 2684 2463 C 2726 2541 2860 2733 2868 2725 C 2870 2723 2867 2668 2861 2603 Z" class=""/>
  </g>
</svg>
